<?xml version="1.0" encoding="utf-8"?>
<!-- Generator: Adobe Illustrator 24.0.0, SVG Export Plug-In . SVG Version: 6.00 Build 0)  -->
<svg version="1.1" id="图层_1" xmlns="http://www.w3.org/2000/svg" xmlns:xlink="http://www.w3.org/1999/xlink" x="0px" y="0px"
	 viewBox="0 0 35 33" style="enable-background:new 0 0 35 33;" xml:space="preserve">
<style type="text/css">
	.st0{fill:url(#SVGID_1_);}
	.st1{fill:url(#SVGID_2_);}
	.st2{fill:url(#SVGID_3_);}
	.st3{fill:url(#SVGID_4_);}
	.st4{fill:url(#SVGID_5_);}
</style>
<g>
	
		<linearGradient id="SVGID_1_" gradientUnits="userSpaceOnUse" x1="3.9709" y1="1169.95" x2="31.0291" y2="1169.95" gradientTransform="matrix(1 0 0 1 0 -1166)">
		<stop  offset="0" style="stop-color:#1A2984"/>
		<stop  offset="8.989887e-02" style="stop-color:#1B3691"/>
		<stop  offset="0.328" style="stop-color:#1D54AF"/>
		<stop  offset="0.5623" style="stop-color:#1F6AC5"/>
		<stop  offset="0.7892" style="stop-color:#2077D2"/>
		<stop  offset="1" style="stop-color:#207BD6"/>
	</linearGradient>
	<path class="st0" d="M4,0.8c0.1,3.5,3,6.3,6.5,6.3h14.1c3.5,0,6.4-2.8,6.5-6.3C31,0.8,4,0.8,4,0.8z"/>
	
		<linearGradient id="SVGID_2_" gradientUnits="userSpaceOnUse" x1="15.9153" y1="1169.95" x2="31.0153" y2="1169.95" gradientTransform="matrix(1 0 0 1 0 -1166)">
		<stop  offset="0" style="stop-color:#31ABDB"/>
		<stop  offset="0.461" style="stop-color:#2996D8"/>
		<stop  offset="1" style="stop-color:#1D78D3"/>
		<stop  offset="1" style="stop-color:#1F83DE"/>
		<stop  offset="1" style="stop-color:#2190EA"/>
		<stop  offset="1" style="stop-color:#2398F2"/>
		<stop  offset="1" style="stop-color:#239AF4"/>
	</linearGradient>
	<path class="st1" d="M15.9,7.1h8.6c3.5,0,6.4-2.8,6.5-6.3h-8.6C18.9,0.8,16,3.6,15.9,7.1z"/>
	<g>
		
			<linearGradient id="SVGID_3_" gradientUnits="userSpaceOnUse" x1="12.5625" y1="1181.5" x2="25.4625" y2="1181.5" gradientTransform="matrix(1 0 0 1 0 -1166)">
			<stop  offset="0.1638" style="stop-color:#0D2EAA"/>
			<stop  offset="0.3376" style="stop-color:#0F36AF"/>
			<stop  offset="0.6134" style="stop-color:#144DBB"/>
			<stop  offset="0.9552" style="stop-color:#1C73D0"/>
			<stop  offset="1" style="stop-color:#1D78D3"/>
			<stop  offset="1" style="stop-color:#1D7EDD"/>
			<stop  offset="1" style="stop-color:#1D82E5"/>
			<stop  offset="1" style="stop-color:#1D83E7"/>
		</linearGradient>
		<path class="st2" d="M25.5,12.4c-0.1,3.3-2.7,6-6,6.2c-0.2,0-0.3,0-0.5,0h-6.4c3.5,0,6.4-2.8,6.5-6.2
			C19.1,12.4,25.5,12.4,25.5,12.4z"/>
		
			<linearGradient id="SVGID_4_" gradientUnits="userSpaceOnUse" x1="4.0756" y1="1185.2" x2="19.124" y2="1185.2" gradientTransform="matrix(1 0 0 1 0 -1166)">
			<stop  offset="0" style="stop-color:#182581"/>
			<stop  offset="0.1879" style="stop-color:#182C88"/>
			<stop  offset="0.4618" style="stop-color:#1A3F9B"/>
			<stop  offset="0.7868" style="stop-color:#1C5FBB"/>
			<stop  offset="1" style="stop-color:#1D78D3"/>
			<stop  offset="1" style="stop-color:#1D77D3"/>
			<stop  offset="1" style="stop-color:#1E75D2"/>
		</linearGradient>
		<path class="st3" d="M19.1,12.4c-0.1,3.5-3,6.2-6.5,6.2l-2.1,0.1c-3.6,0.5-6.4,3.6-6.4,7.3v-4.9c0-0.9,0.1-1.7,0.4-2.5
			c0.6-2,1.8-3.6,3.5-4.7c0.8-0.5,1.6-0.9,2.5-1.2c0.7-0.2,1.5-0.3,2.3-0.3C12.8,12.4,19.1,12.4,19.1,12.4z"/>
		
			<linearGradient id="SVGID_5_" gradientUnits="userSpaceOnUse" x1="10.6482" y1="1195.2941" x2="5.6944" y2="1186.7137" gradientTransform="matrix(1 0 0 1 0 -1166)">
			<stop  offset="0" style="stop-color:#192E84"/>
			<stop  offset="0.6568" style="stop-color:#0E1F6F"/>
			<stop  offset="1" style="stop-color:#071562"/>
			<stop  offset="1" style="stop-color:#0A134B"/>
		</linearGradient>
		<path class="st4" d="M12.7,18.6c-1.2,0.1-2.1,1.1-2.2,2.3c0,0.1,0,0.2,0,0.2v0.2v4.4c0,3.5-2.9,6.4-6.4,6.5V26
			c0-3.7,2.8-6.8,6.4-7.3c0.2,0,0.3-0.1,0.5-0.1H12.7L12.7,18.6z"/>
	</g>
</g>
</svg>
