<?xml version="1.0" encoding="UTF-8"?>
<svg width="142px" height="162px" viewBox="0 0 142 162" version="1.1" xmlns="http://www.w3.org/2000/svg" xmlns:xlink="http://www.w3.org/1999/xlink">
    <title>联系人</title>
    <g id="页面-1" stroke="none" stroke-width="1" fill="none" fill-rule="evenodd">
        <g id="联系人" transform="translate(-304.000000, -362.000000)" fill="#2C2C2C" fill-rule="nonzero" stroke="#7F5AF0">
            <path d="M430.545723,363 L319.454277,363 C315.530973,363 311.814159,364.653747 309.336283,367.341085 C306.445428,369.821705 305,373.335917 305,377.470284 L305,399.17571 C307.477876,399.17571 309.749262,400.416021 311.40118,402.896641 C312.640118,405.377261 312.640118,407.651163 311.40118,410.131783 C310.162242,412.612403 307.684366,413.852713 305,413.852713 L305,432.043928 C307.477876,432.043928 309.749262,433.284238 311.40118,435.764858 C312.640118,438.245478 312.640118,440.51938 311.40118,443 C310.162242,445.48062 307.684366,446.72093 305,446.72093 L305,464.912145 C307.477876,464.912145 309.749262,466.152455 311.40118,468.633075 C312.640118,471.113695 312.640118,473.387597 311.40118,475.868217 C310.162242,478.348837 307.684366,479.589147 305,479.589147 L305,508.529716 C305,516.591731 311.40118,523 319.454277,523 L430.545723,523 C434.469027,523 438.185841,521.346253 440.663717,518.658915 C443.554572,515.764858 445,512.250646 445,508.529716 L445,377.470284 C445,369.408269 438.59882,363 430.545723,363 Z M407.831858,475.661499 C407.418879,477.728682 407.0059,479.17571 406.386431,479.589147 C405.973451,480.002584 405.147493,480.209302 403.908555,480.416021 C402.669616,480.829457 401.224189,481.036176 399.365782,481.242894 C397.300885,481.656331 395.235988,481.863049 393.377581,482.069767 C391.106195,482.276486 389.041298,482.483204 386.769912,482.689922 C385.530973,482.689922 384.292035,482.896641 383.053097,482.896641 C382.227139,483.103359 381.40118,483.103359 380.368731,483.103359 L368.39233,483.103359 C367.566372,482.896641 366.740413,482.896641 365.707965,482.896641 C364.469027,482.896641 363.230088,482.689922 361.99115,482.689922 C359.719764,482.483204 357.654867,482.276486 355.383481,482.069767 C353.318584,481.656331 351.253687,481.449612 349.39528,481.242894 C347.743363,480.829457 346.091445,480.622739 344.852507,480.416021 C343.40708,480.002584 342.787611,479.795866 342.374631,479.589147 C341.755162,479.175711 341.135693,477.935401 340.929204,475.661499 C340.516224,473.594315 340.722714,470.700258 341.548673,466.77261 C341.961652,465.325581 342.374631,464.29199 342.9941,463.465116 C343.613569,462.638243 344.439528,461.81137 345.471976,461.191214 C346.504425,460.571059 347.743363,460.157623 348.775811,459.744186 C350.014749,459.537468 351.253687,459.124031 352.492625,458.710594 C353.731563,458.503876 354.970501,458.090439 356.209439,457.677003 C357.448378,457.263566 358.480826,456.850129 359.513274,456.229974 C360.545723,455.609819 361.371681,454.989664 361.99115,454.369509 C362.19764,454.369509 362.40413,454.162791 362.40413,453.956072 C362.610619,453.956072 362.817109,453.749354 362.817109,453.542636 C363.023599,453.335917 363.023599,453.129199 363.230088,452.922481 C363.436578,452.509044 363.643068,452.302326 363.643068,451.888889 L363.643068,451.682171 C363.849558,451.268734 363.849558,450.855297 363.849558,450.44186 L363.849558,447.96124 C363.849558,446.927649 363.436578,445.894057 362.610619,445.067183 L361.165192,443.620155 C360.958702,443.413437 360.545723,443 360.132743,442.793282 C359.513274,442.379845 359.100295,441.75969 358.893805,441.139535 C358.480826,440.51938 358.067847,439.692506 357.861357,439.072351 C357.654867,438.452196 357.448378,438.03876 357.241888,437.418605 C357.035398,437.005168 356.828909,436.79845 356.828908,436.385013 C356.209439,434.731266 355.79646,433.284238 355.58997,431.837209 C355.383481,430.183463 354.970501,428.529716 354.970501,426.462532 C354.764012,422.534884 355.383481,418.607235 356.415929,414.886305 L356.415929,414.472868 C356.828908,412.612403 357.654867,410.958656 358.687316,409.511628 C358.687316,409.304909 358.893805,409.098191 358.893805,409.098191 C359.100295,409.098191 359.306785,408.891473 359.306785,408.684754 C359.513274,408.478036 359.513274,408.271318 359.719764,408.064599 C360.545723,407.031008 361.371681,406.204134 362.40413,405.583979 C363.643068,404.550388 364.882006,403.723514 366.327434,403.310078 C367.566372,402.896641 368.80531,402.483204 370.250738,402.276486 C371.696165,402.069767 372.935103,402.069767 374.174041,402.069767 L375,402.069767 C376.238938,402.069767 377.477876,402.069767 378.923304,402.276486 C380.368732,402.483204 381.60767,402.896641 383.053097,403.516796 C384.498525,404.136951 385.737463,404.757106 386.976401,405.790698 C388.00885,406.410853 388.834808,407.237726 389.660767,408.271318 C389.867257,408.478036 389.867257,408.684754 390.073746,408.891473 C390.280236,408.891473 390.486726,409.098191 390.486726,409.304909 C390.486726,409.511628 390.693215,409.718346 390.693215,409.718346 C391.725664,411.372093 392.551622,412.819121 392.964602,414.679586 L392.964602,415.093023 C393.99705,418.813953 394.41003,422.741602 394.41003,426.669251 C394.20354,428.736434 394.20354,430.390181 393.790561,432.043928 C393.584071,433.284238 393.171092,434.731266 392.551622,436.591731 C392.345133,437.005168 392.345133,437.418605 392.138643,437.625323 C391.932153,438.245478 391.725664,438.865633 391.519174,439.27907 C391.106195,439.899225 390.899705,440.726098 390.486726,441.346253 C390.073746,441.966408 389.660767,442.586563 389.247788,443 C389.041298,443.413437 388.628319,443.620155 388.215339,443.826873 L386.769912,445.273902 C385.943953,446.100775 385.530973,447.134367 385.530973,448.167959 L385.530973,450.648579 C385.530973,451.062015 385.530973,451.68217 385.737463,452.095607 C385.943953,452.509044 385.943953,452.715762 386.150442,453.129199 C386.563422,453.749354 386.976401,454.369509 387.389381,454.782946 C388.00885,455.196382 388.834808,456.023256 389.867257,456.643411 C390.899705,457.056847 391.932153,457.677003 393.171092,458.090439 C394.41003,458.297158 395.648968,458.710594 396.887906,459.124031 C398.126844,459.330749 399.365782,459.744186 400.60472,460.157623 C401.843658,460.364341 402.876106,460.984496 403.908555,461.604651 C404.941003,462.224806 405.766962,463.05168 406.386431,463.878553 C407.212389,464.705426 407.625369,465.739018 407.831858,467.186047 C408.038348,467.806202 408.038348,468.219638 408.038348,468.633075 C408.244838,471.527132 408.451327,474.007752 407.831858,475.661499 L407.831858,475.661499 Z"></path>
        </g>
    </g>
</svg>