<?xml version="1.0" encoding="UTF-8"?>
<svg width="32px" height="32px" viewBox="0 0 32 32" version="1.1" xmlns="http://www.w3.org/2000/svg" xmlns:xlink="http://www.w3.org/1999/xlink">
    <title>Fill 1 Copy</title>
    <g id="页面-1" stroke="none" stroke-width="1" fill="none" fill-rule="evenodd">
        <g id="新联系人" transform="translate(-643.000000, -523.000000)" fill="#FFFFFF">
            <path d="M673.666667,555 L665.666667,555 L665.666667,552.333333 L672.333333,552.333333 L672.333333,545.666667 L675,545.666667 L675,553.666667 C675,554.400083 674.40675,555 673.666667,555 Z M645.666667,552.333333 L652.333333,552.333333 L652.333333,555 L644.333333,555 C643.596667,555 643,554.400083 643,553.666667 L643,545.666667 L645.666667,545.666667 L645.666667,552.333333 Z M643,540.333333 L675,540.333333 L675,537.666667 L643,537.666667 L643,540.333333 Z M675,532.333333 L672.333333,532.333333 L672.333333,525.666667 L665.666667,525.666667 L665.666667,523 L673.666667,523 C674.403333,523 675,523.599917 675,524.333333 L675,532.333333 Z M652.333333,525.666667 L645.666667,525.666667 L645.666667,532.333333 L643,532.333333 L643,524.333333 C643,523.599917 643.596667,523 644.333333,523 L652.333333,523 L652.333333,525.666667 Z" id="Fill-1-Copy"></path>
        </g>
    </g>
</svg>