<?xml version="1.0" encoding="UTF-8"?>
<svg width="36px" height="36px" viewBox="0 0 36 36" version="1.1" xmlns="http://www.w3.org/2000/svg" xmlns:xlink="http://www.w3.org/1999/xlink">
    <title>箭头备份 4</title>
    <g id="页面-1" stroke="none" stroke-width="1" fill="none" fill-rule="evenodd">
        <g id="通用" transform="translate(-646.000000, -309.000000)">
            <g id="箭头备份-4" transform="translate(646.000000, 309.000000)">
                <path d="M11.979662,6.58780708 C11.6048313,6.97021053 11.6068016,7.58519436 11.9854999,7.96359224 L21.9743932,17.9327245 L12.0279708,28.0409493 C11.6522644,28.4233528 11.6550009,29.0383366 12.0336992,29.4178737 C12.4135286,29.7964186 13.0249409,29.7935522 13.4009392,29.412141 L23.9714713,18.668537 C23.9878539,18.65189 23.9917215,18.6305024 24.007265,18.6140024 C24.0109502,18.6099968 24.015803,18.6091149 24.01978,18.6052563 C24.199223,18.4230947 24.3,18.1768806 24.3,17.9202301 C24.3,17.6701575 24.2043676,17.4190927 24.0139421,17.2293241 L13.3467925,6.58291955 C12.967109,6.20338247 12.3555143,6.20639583 11.979662,6.58780708 Z" id="Fill-1-Copy-3" stroke="#FFFFFF" stroke-width="1.2" fill="#FFFFFF" transform="translate(18.000000, 18.000000) rotate(-270.000000) translate(-18.000000, -18.000000) "></path>
                <rect id="矩形" x="0" y="0" width="36" height="36"></rect>
            </g>
        </g>
    </g>
</svg>